<?xml version="1.0" standalone="no"?>
<!DOCTYPE svg PUBLIC "-//W3C//DTD SVG 20010904//EN"
 "http://www.w3.org/TR/2001/REC-SVG-20010904/DTD/svg10.dtd">
<svg version="1.0" xmlns="http://www.w3.org/2000/svg"
 width="512.000000pt" height="512.000000pt" viewBox="0 0 512.000000 512.000000"
 preserveAspectRatio="xMidYMid meet">
<metadata>
Created by potrace 1.16, written by Peter Selinger 2001-2019
</metadata>
<g transform="translate(0.000000,512.000000) scale(0.100000,-0.100000)"
fill="white" stroke="none">
<path d="M3785 3784 c-97 -50 -140 -163 -100 -262 11 -25 133 -154 378 -399
l362 -363 -2144 0 -2144 0 -43 -25 c-63 -37 -94 -95 -94 -175 0 -80 31 -138
94 -175 l43 -25 2144 0 2144 0 -362 -362 c-245 -246 -367 -375 -378 -400 -34
-83 -6 -183 67 -242 29 -22 51 -30 92 -34 117 -9 76 -42 678 551 303 298 561
560 574 583 34 57 34 151 0 208 -30 52 -1105 1112 -1141 1126 -40 15 -136 12
-170 -6z"/>
</g>
</svg>
