<?xml version="1.0" standalone="no"?>
<!DOCTYPE svg PUBLIC "-//W3C//DTD SVG 20010904//EN"
 "http://www.w3.org/TR/2001/REC-SVG-20010904/DTD/svg10.dtd">
<svg version="1.0" xmlns="http://www.w3.org/2000/svg"
 width="512.000000pt" height="512.000000pt" viewBox="0 0 512.000000 512.000000"
 preserveAspectRatio="xMidYMid meet">
<metadata>
Created by potrace 1.16, written by Peter Selinger 2001-2019
</metadata>
<g transform="translate(0.000000,512.000000) scale(0.100000,-0.100000)"
fill="white" stroke="none">
<path d="M2305 5059 c-910 -94 -1707 -666 -2078 -1492 -98 -217 -157 -413
-198 -651 -31 -176 -38 -542 -14 -726 76 -601 331 -1119 756 -1537 194 -190
409 -343 654 -463 296 -146 401 -169 468 -101 l32 31 3 252 3 251 -53 -8
c-189 -27 -339 -21 -457 19 -99 33 -155 69 -232 145 -51 51 -76 86 -108 156
-24 50 -52 109 -63 133 -50 106 -127 198 -225 269 -62 44 -113 96 -113 114 0
22 74 41 134 35 131 -14 273 -115 369 -265 90 -138 174 -210 298 -252 91 -30
268 -23 380 16 l77 26 7 47 c15 98 63 199 128 269 17 18 29 34 26 36 -2 2 -56
12 -119 21 -328 50 -556 151 -730 326 -190 189 -283 424 -311 783 -23 306 45
561 202 756 56 70 56 67 24 181 -10 36 -16 99 -16 180 -1 128 11 201 52 328
l21 62 51 0 c142 0 358 -86 589 -233 l54 -35 60 14 c387 92 772 93 1148 4 l80
-19 65 41 c223 142 440 227 578 228 l51 0 21 -62 c62 -188 72 -363 32 -529
l-24 -95 52 -64 c157 -196 225 -449 202 -757 -26 -350 -114 -579 -297 -772
-163 -174 -411 -285 -749 -336 -60 -10 -112 -19 -114 -21 -2 -2 15 -24 37 -49
43 -48 79 -119 108 -206 15 -47 18 -112 23 -521 l6 -468 32 -31 c26 -26 42
-33 85 -37 45 -3 70 3 168 41 617 239 1125 715 1402 1312 116 249 187 498 223
785 24 184 17 550 -14 726 -130 761 -566 1400 -1221 1794 -323 194 -678 311
-1069 350 -118 12 -378 11 -496 -1z"/>
</g>
</svg>
