<?xml version="1.0" standalone="no"?>
<!DOCTYPE svg PUBLIC "-//W3C//DTD SVG 20010904//EN"
 "http://www.w3.org/TR/2001/REC-SVG-20010904/DTD/svg10.dtd">
<svg version="1.0" xmlns="http://www.w3.org/2000/svg"
 width="512.000000pt" height="512.000000pt" viewBox="0 0 512.000000 512.000000"
 preserveAspectRatio="xMidYMid meet">
<metadata>
Created by potrace 1.16, written by Peter Selinger 2001-2019
</metadata>
<g transform="translate(0.000000,512.000000) scale(0.100000,-0.100000)"
fill="white" stroke="none">
<path d="M2235 5105 c-462 -60 -885 -237 -1255 -523 -117 -91 -316 -287 -413
-407 -276 -342 -459 -746 -537 -1186 -28 -156 -39 -531 -21 -702 82 -766 505
-1455 1156 -1880 324 -211 689 -344 1085 -393 152 -19 472 -18 630 1 1160 144
2081 1065 2225 2225 20 162 20 478 0 640 -92 744 -509 1411 -1140 1826 -329
216 -695 350 -1085 399 -152 18 -501 18 -645 0z m991 -1095 c148 -13 249 -40
364 -97 80 -39 109 -61 186 -137 76 -77 98 -106 137 -186 102 -206 110 -291
104 -1110 -3 -595 -5 -641 -24 -726 -73 -320 -276 -537 -576 -613 -138 -36
-270 -42 -857 -42 -737 0 -831 10 -1030 108 -80 39 -109 61 -186 137 -76 77
-98 106 -137 186 -98 199 -107 286 -107 1030 0 744 9 831 107 1030 39 80 60
109 137 185 125 124 237 182 429 221 139 28 1174 38 1453 14z"/>
<path d="M1945 3760 c-199 -14 -326 -62 -426 -162 -100 -101 -143 -219 -159
-436 -12 -165 -12 -1039 0 -1204 16 -216 60 -336 161 -437 106 -107 219 -145
469 -162 213 -14 1197 -6 1289 10 275 50 422 197 472 472 16 92 24 1076 10
1289 -17 253 -54 362 -162 469 -103 103 -220 146 -443 161 -154 11 -1052 10
-1211 0z m1476 -266 c64 -33 107 -121 89 -183 -39 -138 -186 -181 -283 -84
-135 135 24 354 194 267z m-656 -214 c131 -41 221 -96 320 -195 100 -100 154
-189 196 -325 34 -108 34 -292 0 -400 -42 -136 -96 -225 -196 -325 -100 -100
-189 -154 -325 -196 -108 -34 -292 -34 -400 0 -136 42 -225 96 -325 196 -100
100 -154 189 -196 325 -34 108 -34 292 0 400 76 247 261 437 499 515 86 28
141 34 252 30 70 -2 128 -11 175 -25z"/>
<path d="M2403 3030 c-131 -43 -252 -157 -304 -287 -20 -50 -24 -75 -24 -183
0 -107 4 -133 23 -182 49 -121 159 -231 280 -280 49 -19 75 -23 182 -23 107 0
133 4 182 23 121 49 231 159 280 280 19 49 23 75 23 182 0 107 -4 133 -23 182
-49 121 -160 232 -280 279 -83 33 -252 37 -339 9z"/>
</g>
</svg>
