<?xml version="1.0" standalone="no"?>
<!DOCTYPE svg PUBLIC "-//W3C//DTD SVG 20010904//EN"
 "http://www.w3.org/TR/2001/REC-SVG-20010904/DTD/svg10.dtd">
<svg version="1.0" xmlns="http://www.w3.org/2000/svg"
 width="512.000000pt" height="512.000000pt" viewBox="0 0 512.000000 512.000000"
 preserveAspectRatio="xMidYMid meet">
<metadata>
Created by potrace 1.16, written by Peter Selinger 2001-2019
</metadata>
<g transform="translate(0.000000,512.000000) scale(0.100000,-0.100000)"
fill="white" stroke="none">
<path d="M350 5097 c-159 -54 -288 -188 -334 -346 -14 -49 -16 -266 -16 -2192
0 -2100 0 -2138 20 -2200 49 -159 189 -296 349 -343 49 -14 266 -16 2192 -16
2100 0 2138 0 2200 20 159 49 296 189 343 349 14 49 16 266 16 2191 0 1925 -2
2142 -16 2191 -47 160 -184 300 -343 349 -62 20 -99 20 -2205 20 l-2141 -1
-65 -22z m921 -691 c226 -69 363 -280 328 -506 -50 -321 -415 -488 -689 -315
-199 126 -267 385 -158 599 27 53 112 142 166 173 100 59 251 80 353 49z
m2397 -1316 c104 -26 262 -107 349 -180 181 -150 297 -363 322 -594 7 -58 11
-375 11 -821 l0 -725 -380 0 -380 0 0 684 c0 420 -4 704 -10 737 -23 123 -106
229 -220 283 -58 28 -75 31 -160 31 -85 0 -102 -3 -160 -31 -114 -54 -197
-160 -220 -283 -6 -33 -10 -317 -10 -737 l0 -684 -380 0 -380 0 0 1150 0 1150
380 0 379 0 3 -156 3 -155 59 68 c126 146 315 255 495 283 76 12 206 3 299
-20z m-2138 -1170 l0 -1150 -380 0 -380 0 0 1150 0 1150 380 0 380 0 0 -1150z"/>
</g>
</svg>
